<?xml version="1.0" encoding="UTF-8"?>
<svg version="1.1" xmlns="http://www.w3.org/2000/svg" width="1920" height="641">
<path d="M0 0 C110.88 0 221.76 0 336 0 C336 41.25 336 82.5 336 125 C262.41 125 188.82 125 113 125 C113.33 129.62 113.66 134.24 114 139 C114.99 138.34 115.98 137.68 117 137 C120.96479113 136.56094202 124.95105133 136.6758369 128.9375 136.6875 C130.03513672 136.67138672 131.13277344 136.65527344 132.26367188 136.63867188 C133.32005859 136.63802734 134.37644531 136.63738281 135.46484375 136.63671875 C136.91298462 136.63224731 136.91298462 136.63224731 138.39038086 136.62768555 C141.42056739 137.06000236 142.81578465 137.88413205 145 140 C145 140.66 145 141.32 145 142 C151.93 142 158.86 142 166 142 C166 157.18 166 172.36 166 188 C209.56 188 253.12 188 298 188 C298 224.3 298 260.6 298 298 C236.95 298 175.9 298 113 298 C113 322.42 113 346.84 113 372 C137.21013123 372.05508556 137.21013123 372.05508556 161.41992188 372.03515625 C171.29988632 372.01038203 181.17937429 371.99368013 191.05932617 372.03076172 C198.25653965 372.05773626 205.4531115 372.05633958 212.65030175 372.02174091 C216.45676006 372.00441017 220.26207031 372.00069783 224.06847191 372.03103638 C227.66175784 372.05922608 231.25302293 372.04907956 234.84620094 372.01126289 C236.7724616 372.00046923 238.69882163 372.02876017 240.62487793 372.05882263 C249.00873994 371.92079059 254.37808124 369.63618977 261.14079762 364.94677734 C275.0655098 355.46570166 294.19012135 354.65952919 310.33203125 357.2109375 C329.41822053 361.3168057 346.54001404 372.22375568 357.65234375 388.40625 C367.51992659 404.27472927 370.48946359 419.48882566 370.29296875 437.8984375 C370.28735606 439.47026153 370.2830939 441.04209091 370.28010559 442.61392212 C370.26878821 446.70083757 370.23943839 450.7874203 370.20599365 454.87420654 C370.17500574 459.06452944 370.16153964 463.25490743 370.14648438 467.4453125 C370.11455243 475.63035904 370.06352038 483.81513785 370 492 C371.09940918 492.29116699 372.19881836 492.58233398 373.33154297 492.88232422 C381.06679777 495.23903901 387.24395966 502.13880687 391.10546875 509.125 C394.8725605 517.02108752 395.36364782 526.35170877 393.3125 534.84765625 C389.40325655 545.38632505 382.91953516 552.13503349 372.87890625 557.03515625 C363.81388682 560.61126483 353.57238813 560.15784048 344.63671875 556.453125 C335.726835 551.54278907 329.33807237 544.26219448 326.2265625 534.59765625 C323.58507519 523.74011426 325.59782197 514.30117331 331.28125 504.875 C336.86130213 496.69092355 343.62836198 493.2526716 353 491 C352.96169989 482.24503893 352.90199123 473.49054605 352.81609726 464.73592186 C352.77684682 460.66931081 352.74454992 456.60290904 352.72900391 452.53613281 C352.71368743 448.60009007 352.6789836 444.66462357 352.63169098 440.72883987 C352.61702967 439.23885782 352.60896791 437.74879342 352.60811615 436.25873947 C352.59403365 423.9583256 351.12085752 412.05865645 344.5 401.375 C343.9328125 400.43398438 343.365625 399.49296875 342.78125 398.5234375 C340.82031459 395.59377203 340.82031459 395.59377203 337 392 C336.67 426.65 336.34 461.3 336 497 C303.66 497 271.32 497 238 497 C237.34 500.96 236.68 504.92 236 509 C235.17927978 511.76453128 234.36113672 514.33764723 233.3125 517 C233.05194824 517.67369629 232.79139648 518.34739258 232.52294922 519.04150391 C222.87491218 543.17017507 204.02759689 561.47377443 180.37963867 571.6730957 C156.97677785 581.01697266 131.10343248 580.32513362 107.9453125 570.78125 C84.69948049 560.59758013 67.72708255 542.2874692 58 519 C55.17972151 511.48743208 53.89729 505.07561003 53 497 C35.51 497 18.02 497 0 497 C0.01683838 490.43279053 0.03367676 483.86558105 0.05102539 477.09936523 C0.1000511 455.43007836 0.10026781 433.76099569 0.07515812 412.09167385 C0.06112725 398.95020581 0.06390852 385.80914204 0.10620117 372.66772461 C0.14301896 361.21426023 0.14836081 349.76128884 0.11582941 338.30780369 C0.09970329 332.24247669 0.09939067 326.17807448 0.13676643 320.11282158 C0.1714501 314.40375439 0.16404556 308.69628825 0.12437057 302.98726845 C0.11722766 300.89226613 0.12545753 298.79714623 0.15022469 296.70227814 C0.71922808 285.92176292 0.71922808 285.92176292 -2.99015999 276.23689461 C-5.26764177 274.43838889 -7.37045831 273.20118329 -10 272 C-29.90113592 256.24104104 -42.98570501 231.05701218 -46 206 C-46.59649512 195.86762945 -46.40157862 185.70383169 -46.2746582 175.55963135 C-46.23310759 171.87839084 -46.21533806 168.19703437 -46.1953125 164.515625 C-46.15292098 157.34340459 -46.08280891 150.1718885 -46 143 C-39.07 143 -32.14 143 -25 143 C-24.67 142.01 -24.34 141.02 -24 140 C-20 138 -20 138 0 138 C0 92.46 0 46.92 0 0 Z M-27 159 C-27.05021865 163.85228035 -27.08609757 168.70440261 -27.10986328 173.55688477 C-27.11979235 175.20046633 -27.13334011 176.84403086 -27.15087891 178.48754883 C-27.41869687 204.26896672 -23.48797207 229.62637657 -5 249 C-3.35 250.32 -1.7 251.64 0 253 C0 223.96 0 194.92 0 165 C-6.6 164.67 -13.2 164.34 -20 164 C-22.31 162.35 -24.62 160.7 -27 159 Z M146 157 C145.360625 157.639375 144.72125 158.27875 144.0625 158.9375 C139.68396933 163.31603067 134.48984218 162.18394124 128.625 162.1875 C127.04332031 162.20586914 127.04332031 162.20586914 125.4296875 162.22460938 C124.41390625 162.22654297 123.398125 162.22847656 122.3515625 162.23046875 C120.95671631 162.23663208 120.95671631 162.23663208 119.53369141 162.24291992 C117 162 117 162 113 160 C113 169.24 113 178.48 113 188 C124.22 188 135.44 188 147 188 C147 177.77 147 167.54 147 157 C146.67 157 146.34 157 146 157 Z M70 497 C72.4458578 508.16544486 72.4458578 508.16544486 76.75 518.25 C77.10070557 518.92619385 77.45141113 519.6023877 77.81274414 520.29907227 C80.67608986 525.68004267 83.89286444 530.47862545 88 535 C88.96292969 536.10021484 88.96292969 536.10021484 89.9453125 537.22265625 C103.63476409 551.94765676 122.45557805 559.72921494 142.35546875 560.95703125 C165.05206221 561.22462238 184.69349461 552.59643986 201.125 536.98046875 C210.67434492 526.92754509 220 511.12067652 220 497 C170.5 497 121 497 70 497 Z M352 497 C342.66330905 501.00407497 336.57662059 505.76440015 332.69921875 515.3515625 C330.76669122 522.67141539 330.84773437 530.41229899 333.9375 537.375 C338.21976317 544.69706688 344.46747529 550.40315522 352.7578125 552.59765625 C361.57896731 554.1805464 369.4090701 552.45754875 377.078125 547.71484375 C382.64988265 543.36645028 386.68173301 536.97749396 388 530 C388.85406583 521.2353244 387.70632905 513.70782648 382.1640625 506.66796875 C378.49406641 502.76596141 375.40479722 500.08095944 370 499 C370 499.99 370 500.98 370 502 C371.546875 502.7115625 371.546875 502.7115625 373.125 503.4375 C378.63968136 506.55351914 382.02878057 512.08634172 384 518 C384.61372052 525.91800077 385.13679138 533.51857794 380 540 C374.41484511 546.04136804 368.4218866 549.11151333 360.125 549.4375 C352.91303494 549.23892274 347.78946641 547.23157313 342.1875 542.75 C336.82912687 536.01375949 334.491114 529.3448339 335.18359375 520.7109375 C336.41860514 513.30086913 340.20668988 508.12291569 346.125 503.625 C348.39206738 502.34361409 350.63590963 501.09111863 353 500 C352.67 499.01 352.34 498.02 352 497 Z " fill="#333333" transform="translate(115,37)"/>
<path d="M0 0 C110.88 0 221.76 0 336 0 C336 41.25 336 82.5 336 125 C262.41 125 188.82 125 113 125 C113 145.79 113 166.58 113 188 C124.22 188 135.44 188 147 188 C147 209.91971911 142.19571637 228.91746818 128 246 C127.2884375 246.86238281 126.576875 247.72476563 125.84375 248.61328125 C116.17339565 259.83293533 103.99328983 268.91535114 90 274 C88.46472656 274.56074219 88.46472656 274.56074219 86.8984375 275.1328125 C68.38926608 280.80050311 45.87146927 280.76424681 28 273 C27.31663574 272.71060547 26.63327148 272.42121094 25.92919922 272.12304688 C4.38955914 262.77911827 4.38955914 262.77911827 0 254 C-0.11933783 251.20916775 -0.17837254 248.44253101 -0.19287109 245.65063477 C-0.20104858 244.78709381 -0.20922607 243.92355286 -0.21765137 243.03384399 C-0.24251178 240.1697052 -0.25902037 237.30561587 -0.2734375 234.44140625 C-0.27876118 233.4650868 -0.28408485 232.48876736 -0.28956985 231.48286247 C-0.31630045 226.31825419 -0.33567823 221.1536701 -0.35009766 215.98901367 C-0.36677242 210.6441428 -0.41157401 205.29988532 -0.4624691 199.95524693 C-0.49605087 195.85380814 -0.50766493 191.75251682 -0.51332474 187.65095329 C-0.52005918 185.6800866 -0.53533774 183.70923033 -0.55921555 181.73849678 C-0.59068482 178.98473487 -0.59093203 176.23265277 -0.58349609 173.47875977 C-0.6081041 172.25132805 -0.6081041 172.25132805 -0.63320923 170.99909973 C-0.60800171 168.72608948 -0.60800171 168.72608948 0 165 C2.41146851 163.15757751 2.41146851 163.15757751 5 162 C7.3948515 158.40772276 7.36703237 155.7176193 7.375 151.5625 C7.40335937 150.24378906 7.43171875 148.92507812 7.4609375 147.56640625 C7.30554366 143.97950127 7.30554366 143.97950127 5.1640625 141.65234375 C3.48831537 140.3728473 1.75427295 139.1695153 0 138 C0 92.46 0 46.92 0 0 Z " fill="#ACCBE7" transform="translate(115,37)"/>
<path d="M0 0 C43.56 0 87.12 0 132 0 C132 36.3 132 72.6 132 110 C70.95 110 9.9 110 -53 110 C-53 134.42 -53 158.84 -53 184 C-7.79 184 37.42 184 84 184 C80.5463215 188.02929159 77.30155167 191.71311215 73.625 195.4375 C69.91305697 199.56883626 67.19896177 203.77265411 64.6875 208.6875 C64.37441895 209.28554443 64.06133789 209.88358887 63.73876953 210.49975586 C57.57237556 223.22267605 56.40641561 235.93233541 56.42578125 249.80078125 C56.41330077 251.45608473 56.39895695 253.11137509 56.38285828 254.76664734 C56.34524944 259.07130769 56.32971273 263.37573916 56.32006836 267.68054199 C56.30013066 274.6140369 56.2435243 281.54736162 56.19130516 288.48067284 C56.1759775 290.89487105 56.16877737 293.3089826 56.16316223 295.72322083 C56.15615148 297.19088791 56.149051 298.65855456 56.1418457 300.1262207 C56.13836624 301.40890335 56.13488678 302.691586 56.13130188 304.01313782 C56 307 56 307 55 309 C5.17 309 -44.66 309 -96 309 C-97.5478246 305.9043508 -97.13319566 302.63952329 -97.12025452 299.24264526 C-97.12110894 298.43239305 -97.12196337 297.62214083 -97.12284368 296.78733552 C-97.12449807 294.05725757 -97.11897777 291.32724031 -97.11352539 288.59716797 C-97.11324348 286.64615887 -97.11340132 284.69514966 -97.1139679 282.74414062 C-97.11425574 277.43450181 -97.10836117 272.12488542 -97.10139394 266.81525183 C-97.09515816 261.27121436 -97.09455642 255.72717642 -97.09336853 250.18313599 C-97.09025588 239.67882171 -97.08204337 229.1745178 -97.07201904 218.6702081 C-97.06085586 206.71392142 -97.05534694 194.75763426 -97.05032361 182.80134368 C-97.03986071 158.20089003 -97.02226254 133.6004456 -97 109 C-95.83458176 108.80133835 -94.66916351 108.6026767 -93.46842957 108.397995 C-91.92318037 108.13096602 -90.37795991 107.86377076 -88.83276367 107.59643555 C-87.6834499 107.40119923 -87.6834499 107.40119923 -86.51091766 107.20201874 C-80.9002541 106.22645184 -75.62388274 104.89406941 -70.3125 102.8125 C-69.52633301 102.51279297 -68.74016602 102.21308594 -67.93017578 101.90429688 C-56.93754719 97.57068593 -47.00029496 91.68398125 -38 84 C-37.20207031 83.34644531 -36.40414062 82.69289063 -35.58203125 82.01953125 C-15.86375881 65.23607145 -5.12822124 41.18214958 -1 16 C-0.67 10.72 -0.34 5.44 0 0 Z " fill="#ABCAE7" transform="translate(281,225)"/>
<path d="M0 0 C24.42 0 48.84 0 74 0 C78.76699029 14.89684466 83.50551638 29.77344143 88.00256538 44.74962425 C88.91462889 47.78693042 89.82946338 50.82339158 90.74485779 53.85969543 C92.68644533 60.30158357 94.62460478 66.74450034 96.5625 73.1875 C98.81783883 80.68445755 101.07468592 88.18095741 103.33408928 95.67669106 C104.22104337 98.62136451 105.1059143 101.56665783 105.99061584 104.51200867 C109.8645197 117.38333311 113.8868767 130.20315495 118 143 C121.29525968 132.10525101 124.58643093 121.20927033 127.875 110.3125 C128.12133305 109.49635223 128.36766609 108.68020447 128.62146378 107.83932495 C136.66598188 81.18328165 144.61701932 54.50123637 152.45068359 27.7824707 C152.80519089 26.57520828 153.15969818 25.36794586 153.52494812 24.12409973 C154.17735073 21.9017143 154.82836719 19.6789212 155.47761536 17.45561218 C155.91251534 15.97421501 155.91251534 15.97421501 156.35620117 14.46289062 C156.6029509 13.61940063 156.84970062 12.77591064 157.10392761 11.90686035 C158.33411156 7.91614153 159.67942477 3.96172568 161 0 C185.42 0 209.84 0 235 0 C235 73.59 235 147.18 235 223 C217.51 223 200.02 223 182 223 C181.95497908 205.58815994 182.02311444 188.18405397 182.21875 170.7734375 C182.22973724 169.79129524 182.24072449 168.80915298 182.25204468 167.79724884 C182.34398359 159.63083091 182.4397285 151.46445837 182.53643799 143.2980957 C182.62035054 136.20656823 182.70241948 129.1150234 182.78125 122.0234375 C182.79215668 121.04398918 182.80306335 120.06454086 182.81430054 119.05541229 C183.01831834 100.36991005 183.05807881 81.68641172 183 63 C180.05717631 73.28533147 177.11579364 83.57107455 174.17522812 93.85705185 C173.44034235 96.42755794 172.70535692 98.99803553 171.97036743 101.56851196 C166.10998027 122.06569193 160.265914 142.56739231 154.453125 163.078125 C153.91989683 164.95911453 153.38665818 166.84010108 152.85340881 168.72108459 C150.53178822 176.91125831 148.21134737 185.10175994 145.89541054 193.29354286 C144.94104579 196.66784351 143.9851074 200.04169693 143.02878571 203.41544342 C142.58359928 204.98742521 142.139134 206.55961142 141.69542694 208.13201141 C141.09066724 210.27496568 140.48349689 212.4172225 139.87573242 214.55932617 C139.53571701 215.76159348 139.1957016 216.96386078 138.84538269 218.20256042 C138 221 138 221 137 223 C124.13 223 111.26 223 98 223 C97.20529297 220.20337891 96.41058594 217.40675781 95.59179688 214.52539062 C92.89009522 205.01816926 90.18794443 195.51107558 87.48560333 186.00403595 C85.85592343 180.2706515 84.22637015 174.53723115 82.59716797 168.80371094 C72.76214924 134.19362947 62.88457537 99.59601381 53 65 C53 117.14 53 169.28 53 223 C35.51 223 18.02 223 0 223 C0 149.41 0 75.82 0 0 Z " fill="#ACCBE8" transform="translate(917,309)"/>
<path d="M0 0 C16.83 0 33.66 0 51 0 C51 73.59 51 147.18 51 223 C34.83 223 18.66 223 2 223 C1.67 218.05 1.34 213.1 1 208 C-0.670625 210.041875 -0.670625 210.041875 -2.375 212.125 C-10.8121678 221.55390507 -22.51838698 226.47608213 -35 228 C-60.45534748 229.26679428 -84.47448717 225.46068675 -104.1875 207.875 C-123.33784903 190.00731638 -130.97085789 165.4764129 -132 140 C-132.29101488 116.30827089 -124.7253311 92.72962362 -108.4375 75.25 C-107.633125 74.5075 -106.82875 73.765 -106 73 C-105.27103516 72.20722656 -105.27103516 72.20722656 -104.52734375 71.3984375 C-92.03729695 57.99304448 -72.74875417 50.63387897 -54.6484375 49.61328125 C-32.90278649 48.9301817 -17.14621733 54.28302614 0 68 C0 45.56 0 23.12 0 0 Z M-73 113 C-80.4779585 124.464143 -82.06847068 135.60778473 -80 149 C-77.3294661 159.83434221 -71.2461575 168.68742404 -62 175 C-50.47063474 180.73504416 -39.39617314 183.28234324 -26.75 179.375 C-16.60821192 175.55848501 -6.75874931 168.73140551 -1.625 158.9375 C3.68288033 146.89539265 4.3510595 134.73363948 -0.37890625 122.40625 C-5.07434537 111.79305798 -12.05422076 104.23509589 -23 100 C-41.29755528 93.03667995 -60.12386892 98.30345039 -73 113 Z " fill="#ACCBE8" transform="translate(1507,309)"/>
<path d="M0 0 C16.83 0 33.66 0 51 0 C51 73.59 51 147.18 51 223 C34.83 223 18.66 223 2 223 C1.67 218.05 1.34 213.1 1 208 C0.030625 209.19625 -0.93875 210.3925 -1.9375 211.625 C-11.29512415 222.28177117 -23.98318564 227.21915005 -37.9140625 228.20654297 C-40.88342484 228.30244105 -43.84166221 228.32905664 -46.8125 228.3125 C-47.86348877 228.30758545 -48.91447754 228.3026709 -49.99731445 228.29760742 C-70.9058321 227.98327846 -90.6773955 220.47497106 -106 206 C-106 205.34 -106 204.68 -106 204 C-106.85464844 203.68675781 -106.85464844 203.68675781 -107.7265625 203.3671875 C-120.23404257 195.84550705 -125.90707258 175.21210167 -129.52270508 162.05126953 C-135.52214876 136.26747114 -130.5998123 108.49026533 -117.08203125 86.01953125 C-113.26900352 80.48956795 -108.7365743 75.74347893 -104 71 C-103.34257813 70.33097656 -102.68515625 69.66195312 -102.0078125 68.97265625 C-86.12587228 53.94275145 -64.67452228 49.42710347 -43.48046875 49.72265625 C-26.88693552 50.30200316 -13.99014936 56.8965505 -1 67 C-0.67 44.89 -0.34 22.78 0 0 Z M-73.34765625 113.703125 C-80.08784497 123.07246535 -82.01332998 134.96121369 -80.375 146.3125 C-77.85930863 157.98468294 -73.25352417 166.52237841 -63.54296875 173.85546875 C-53.95683625 179.96945877 -44.33289261 182.20420347 -33 181 C-23.08765994 178.75978706 -14.83169999 174.57026215 -8 167 C-7.154375 166.0925 -6.30875 165.185 -5.4375 164.25 C1.51990187 155.54230835 3.51150546 144.01358561 2.8125 133.0625 C0.72620274 121.14080138 -5.36201446 111.23731515 -15 104 C-34.48815691 91.71228661 -58.7589423 95.92219757 -73.34765625 113.703125 Z " fill="#ACCBE8" transform="translate(639,309)"/>
<path d="M0 0 C1.00401855 0.00491455 2.00803711 0.0098291 3.04248047 0.01489258 C27.10019803 0.3926712 47.60958084 10.78220337 64.6875 27.3125 C81.56400922 45.13507032 88.80027432 70.26782774 88.6875 94.3125 C88.30147059 103.69852941 88.30147059 103.69852941 86.6875 105.3125 C85.080608 105.40850136 83.46948231 105.43437889 81.85972595 105.43275452 C80.81499619 105.43412918 79.77026642 105.43550385 78.69387817 105.43692017 C77.53798187 105.43332489 76.38208557 105.42972961 75.19116211 105.42602539 C73.98157333 105.42617142 72.77198456 105.42631744 71.52574158 105.4264679 C68.19943649 105.42588893 64.87319281 105.42085973 61.5468986 105.41389394 C58.07420071 105.40765978 54.60150207 105.40705655 51.12879944 105.40586853 C44.54853807 105.4027554 37.96829324 105.39454225 31.38803917 105.38451904 C23.89843888 105.37335734 16.40883782 105.36784731 8.9192313 105.36282361 C-6.49135539 105.35235962 -21.90192557 105.33476053 -37.3125 105.3125 C-36.562697 107.37970329 -35.80130109 109.44270367 -35.03515625 111.50390625 C-34.61242432 112.65318604 -34.18969238 113.80246582 -33.75415039 114.98657227 C-29.52295498 124.74805832 -21.92229291 129.46858284 -12.3125 133.3125 C-4.50184027 136.02063572 8.04358814 135.55140095 15.69921875 132.4296875 C20.47760415 129.7447794 24.901956 126.37979046 28.48846436 122.22735596 C31.18709599 119.87746641 32.3851656 119.82412782 35.91503906 119.85839844 C37.47620453 119.85885162 37.47620453 119.85885162 39.06890869 119.85931396 C40.74409576 119.89028168 40.74409576 119.89028168 42.453125 119.921875 C44.17592682 119.93036469 44.17592682 119.93036469 45.93353271 119.93902588 C49.60194574 119.96141669 53.26938217 120.01162058 56.9375 120.0625 C59.42446506 120.08256139 61.91144543 120.10081278 64.3984375 120.1171875 C70.49512489 120.16129045 76.59124267 120.22823051 82.6875 120.3125 C82.0701067 121.90066295 81.44821244 123.48707659 80.82446289 125.07275391 C80.47863663 125.95637604 80.13281036 126.83999817 79.77650452 127.75039673 C78.25343274 131.33373097 76.32174884 134.48460665 74.125 137.6875 C73.69300293 138.32252441 73.26100586 138.95754883 72.81591797 139.61181641 C59.82511449 158.26013113 40.89303636 173.12538011 18.2265625 177.69140625 C-5.89927191 181.55175878 -30.27037928 176.56332271 -50.52734375 162.80859375 C-52.50027651 161.35824203 -54.41173511 159.85585611 -56.3125 158.3125 C-56.89515625 157.86390625 -57.4778125 157.4153125 -58.078125 156.953125 C-69.41702421 147.86157518 -77.57805529 134.5959345 -82.6875 121.125 C-82.9261377 120.4964209 -83.16477539 119.8678418 -83.41064453 119.22021484 C-91.06126249 97.82835681 -89.33680949 72.98631632 -80 52.5 C-68.84077143 29.49541515 -51.40871157 13.14848301 -27.5625 3.9375 C-18.48808672 0.96549541 -9.51868042 -0.05570729 0 0 Z M-29.625 55.6875 C-33.41582597 60.15605714 -36.3125 64.26280886 -36.3125 70.3125 C-12.2225 70.3125 11.8675 70.3125 36.6875 70.3125 C35.19891189 61.38097132 30.77055379 55.54211434 23.8359375 49.81640625 C7.31742943 38.2534506 -16.09558403 41.19697798 -29.625 55.6875 Z " fill="#ACCBE8" transform="translate(1268.3125,358.6875)"/>
<path d="M0 0 C16.83 0 33.66 0 51 0 C51.05607422 10.72757812 51.05607422 10.72757812 51.11328125 21.671875 C51.1435802 26.22007554 51.17474076 30.76823787 51.20898438 35.31640625 C51.26317875 42.52520758 51.31429386 49.73393331 51.34643555 56.94287109 C51.37256805 62.75908255 51.41304045 68.57503816 51.46318626 74.39109039 C51.47978789 76.60284476 51.49134369 78.81464332 51.49761391 81.02645111 C50.69914226 101.25001549 50.69914226 101.25001549 59.32421875 118.66796875 C65.44246904 123.53119334 73.37673226 124.74115103 81 124 C86.96503613 122.76334617 91.42367217 121.1472971 96 117 C96.66 117 97.32 117 98 117 C98.2869574 116.26501785 98.57391479 115.53003571 98.86956787 114.77278137 C100 112 100 112 101.04888916 109.91996765 C105.62177359 99.85603232 104.6052512 88.6428253 104.609375 77.83203125 C104.62437254 75.58329588 104.64110297 73.33457146 104.65948486 71.08586121 C104.70299352 65.19887762 104.72312094 59.3120426 104.73822021 53.42492676 C104.76130894 46.344464 104.81371955 39.26416369 104.86116028 32.18383026 C104.92978634 21.45584465 104.96138807 10.72832458 105 0 C121.83 0 138.66 0 156 0 C156 55.11 156 110.22 156 167 C140.16 167 124.32 167 108 167 C107.505 159.575 107.505 159.575 107 152 C106.154375 153.19625 105.30875 154.3925 104.4375 155.625 C98.75069362 163.12787275 92.99623169 167.15187794 84 170 C82.93072266 170.3403125 82.93072266 170.3403125 81.83984375 170.6875 C64.37760531 175.12235421 44.47573266 172.25224437 28.74609375 163.7578125 C14.98579526 154.94965557 5.93908508 142.06126801 2.085495 126.24710083 C-0.50285732 112.78519698 -0.38455772 99.40307284 -0.29296875 85.7421875 C-0.28736012 83.25684874 -0.28309603 80.77150662 -0.28010559 78.28616333 C-0.26875655 71.80571015 -0.23937696 65.32546489 -0.20599365 58.84509277 C-0.16962197 51.03706553 -0.15608423 43.22897165 -0.13863373 35.42088318 C-0.1097322 23.61377837 -0.05217552 11.80712802 0 0 Z " fill="#ACCAE7" transform="translate(724,365)"/>
<path d="M0 0 C14.52412103 12.05048167 26.91869973 28.29913871 30.9375 47.1875 C30.9375 48.5075 30.9375 49.8275 30.9375 51.1875 C23.82174528 51.46731944 16.70741545 51.65939685 9.58740234 51.79174805 C7.16791786 51.84693495 4.74879811 51.92190762 2.33056641 52.01733398 C-18.9589637 52.83616207 -18.9589637 52.83616207 -23.3671875 48.79321289 C-25.38714963 45.98501234 -26.72046157 43.36032961 -28.0625 40.1875 C-34.02391479 33.33661682 -43.52663589 29.81893094 -52.3671875 28.96484375 C-62.92400991 28.57697328 -73.0497739 31.11472831 -81.0625 38.1875 C-90.18505388 47.79876213 -93.39448367 58.05429894 -94.0625 71.1875 C-93.67240381 82.61731827 -89.44572032 94.18533515 -81.0625 102.1875 C-70.19513997 109.93623383 -60.23160117 112.64332789 -47.0625 110.5 C-38.09320738 108.47240481 -30.88954265 104.31095729 -25.0625 97.1875 C-24.7854422 96.62440628 -24.5083844 96.06131256 -24.22293091 95.4811554 C-23.03032687 93.2918454 -21.96128118 91.81758986 -20.0625 90.1875 C-16.10881407 89.19426371 -12.25383617 89.37212746 -8.19921875 89.50390625 C-7.05209915 89.51381088 -5.90497955 89.52371552 -4.72309875 89.53392029 C-1.0640913 89.57306347 2.59190144 89.66089524 6.25 89.75 C8.73237851 89.7851135 11.21480411 89.81705241 13.69726562 89.84570312 C19.77836998 89.92282548 25.85771964 90.03991697 31.9375 90.1875 C29.83055734 97.40973064 27.75399755 104.47917748 24.3125 111.1875 C23.97331543 111.85338135 23.63413086 112.5192627 23.28466797 113.20532227 C12.13835331 134.31790157 -6.7896782 148.57829703 -29.18359375 156.2578125 C-53.37082791 163.16845083 -78.68952828 159.78639306 -100.75 148.3125 C-105.93259709 145.41084391 -110.49332769 141.96353297 -115.0625 138.1875 C-116.26519531 137.28451172 -116.26519531 137.28451172 -117.4921875 136.36328125 C-134.7467815 121.75718876 -143.8173722 98.50995025 -145.8125 76.55859375 C-147.5802349 51.2607209 -139.24348787 28.13950197 -122.75 9 C-90.76990326 -25.05035854 -36.85972051 -28.6244979 0 0 Z " fill="#ACCBE8" transform="translate(1816.0625,377.8125)"/>
<path d="M0 0 C2.99706527 2.63014533 3.85839143 4.3896902 4.1836853 8.35809326 C4.20388067 10.28258138 4.18557467 12.20771297 4.13658142 14.13168335 C4.13760361 15.18594513 4.13862579 16.24020691 4.13967896 17.32641602 C4.13481323 20.8011156 4.08041506 24.27316718 4.02549744 27.74740601 C4.01243776 30.16020268 4.00247534 32.57301795 3.9954834 34.98583984 C3.96878771 41.32880117 3.90004926 47.67063606 3.82255554 54.01315308 C3.73827371 61.62712831 3.70620216 69.24148073 3.66538239 76.85578918 C3.59755726 88.41679846 3.46341708 99.97533741 3.34190369 111.53646851 C-28.99809631 111.53646851 -61.33809631 111.53646851 -94.65809631 111.53646851 C-94.75090881 93.59271851 -94.75090881 93.59271851 -94.84559631 75.28646851 C-94.87290833 71.53239624 -94.90022034 67.77832397 -94.92835999 63.91049194 C-94.94190979 59.26742554 -94.94190979 59.26742554 -94.94442749 57.08242798 C-94.94898442 55.58126138 -94.95943005 54.0801046 -94.974823 52.57901001 C-95.15760337 33.78806025 -91.2180181 18.58498443 -77.82606506 4.67709351 C-77.11063538 3.97068726 -76.39520569 3.26428101 -75.65809631 2.53646851 C-75.11797913 1.97443726 -74.57786194 1.41240601 -74.02137756 0.83334351 C-53.58533488 -18.72760415 -21.59558 -15.65917134 0 0 Z " fill="#ABCAE7" transform="translate(447.65809631347656,422.4635314941406)"/>
<path d="M0 0 C4.18884938 1.39628313 7.27713307 2.61821758 10.99584961 4.76708984 C22.15683519 11.18979381 33.54714708 14.53032698 46.29711914 16.06298828 C47.40963421 16.19925377 47.40963421 16.19925377 48.54462433 16.33827209 C50.36285639 16.56070735 52.18139817 16.78060846 54 17 C54.0283996 42.75556 53.97165056 68.5089028 53.79807091 94.26387715 C53.76907196 98.61051778 53.74162891 102.9571683 53.71398926 107.30381775 C53.66191293 115.45875663 53.60852797 123.61368634 53.5546174 131.76861328 C53.4930967 141.0849786 53.43311928 150.40135368 53.37324238 159.71772969 C53.25049039 178.81183088 53.12569154 197.90591792 53 217 C35.51 217 18.02 217 0 217 C0 145.39 0 73.78 0 0 Z " fill="#ADCBE7" transform="translate(115,317)"/>
<path d="M0 0 C16.5 0 33 0 50 0 C50 55.11 50 110.22 50 167 C33.5 167 17 167 0 167 C0 111.89 0 56.78 0 0 Z " fill="#ABCAE7" transform="translate(1593,365)"/>
<path d="M0 0 C16.5 0 33 0 50 0 C50 12.87 50 25.74 50 39 C33.5 39 17 39 0 39 C0 26.13 0 13.26 0 0 Z " fill="#ABCAE7" transform="translate(1593,309)"/>
</svg>
